<svg width="186" height="183" viewBox="0 0 186 183" fill="none" xmlns="http://www.w3.org/2000/svg">
<path d="M29.7707 63.5052C28.7137 61.0643 28.4307 58.8176 29.1968 56.9075C29.5817 56.8643 29.9979 56.7987 30.4276 56.7197C31.8802 56.4527 33.8629 55.9619 36.1953 55.2782C40.874 53.9067 47.1344 51.7077 53.6884 48.8004C57.7478 46.9997 62.0353 44.6555 65.848 42.5709C66.68 42.116 67.4901 41.6731 68.2696 41.2512C70.4791 40.0556 72.4341 39.033 74.0519 38.3112C75.7867 37.5373 76.7447 37.2953 77.11 37.2953C78.3513 37.2953 80.3088 37.881 82.8449 39.1501C85.3047 40.3811 88.04 42.1163 90.746 44.0887C96.0414 47.9484 100.926 52.495 103.249 55.5446C104.139 58.3024 104.346 65.1271 96.7096 70.4392L96.1056 70.8593L95.8344 71.5432C94.0538 76.0329 90.3481 82.8081 85.1097 88.3683C79.8568 93.944 73.3573 98.0019 65.9374 97.8293C58.4419 97.655 51.8114 93.4666 46.4447 87.9285C41.094 82.407 37.2687 75.8107 35.4131 71.4815L35.2163 71.0221L34.8547 70.6771C33.2323 69.1291 31.04 66.4362 29.7707 63.5052Z" fill="white"/>
<path d="M106.436 41.2288C106.555 44.7577 106.044 47.8077 105.074 50.1567C102.143 46.9742 97.9328 43.2858 93.6219 40.1437C90.7743 38.0681 87.8034 36.1724 85.0301 34.7845C82.333 33.4348 79.5304 32.4135 77.11 32.4135C75.5824 32.4135 73.7501 33.1001 72.0626 33.853C70.2579 34.6581 68.1582 35.7606 65.9458 36.9578C65.1264 37.4013 64.2891 37.8589 63.439 38.3235L63.4363 38.325C59.6274 40.4068 55.5637 42.6279 51.7086 44.3379C45.358 47.155 39.3007 49.2806 34.8219 50.5935C32.6414 51.2326 30.8758 51.6672 29.6542 51.8979C28.9164 48.7108 28.5674 44.6908 28.507 40.8813C28.434 36.2762 28.7885 32.4656 29.1698 31.1313L29.1853 31.0771L29.1983 31.0222C31.5334 21.1436 38.147 14.6845 45.6862 10.6439C53.2707 6.57914 61.6082 5.07528 66.8574 5.07505C84.9082 5.07426 96.2099 14.3817 101.932 25.081C104.813 30.4675 106.265 36.1902 106.436 41.2288Z" fill="white"/>
<path d="M47.8162 105.344V95.7281C52.8597 99.6602 58.921 102.549 65.8239 102.71C73.0591 102.878 79.3207 99.8574 84.4332 95.6769V106.191C82.6237 111.017 76.4978 119.797 65.3924 119.797C59.7322 119.797 55.6706 117.396 52.8224 114.347C50.0254 111.353 48.4351 107.759 47.8162 105.344Z" fill="white"/>
<path d="M75.6451 157.645V145.183H88.3391V157.542C87.6477 158.4 86.6923 159.387 85.618 160.203C84.2363 161.252 82.9691 161.781 81.9921 161.781C80.9925 161.781 79.6345 161.231 78.2199 160.185C77.098 159.355 76.1885 158.396 75.6451 157.645Z" fill="white"/>
<path fill-rule="evenodd" clip-rule="evenodd" d="M24.2736 113.196L43.126 106.706C43.9456 109.8 45.8832 114.071 49.2546 117.68C52.8673 121.547 58.1634 124.679 65.3924 124.679C79.7762 124.679 87.229 113.093 89.1829 107.409L89.3155 107.024V105.483L107.696 113.612L107.408 113.568C106.262 121.019 104.668 133.255 103.605 145.794C102.599 157.66 102.051 169.976 102.863 178.768L30.7155 178.487C30.4827 156.271 29.2372 140.471 27.7516 129.702C26.9941 124.211 26.171 120.003 25.3794 116.906C25.014 115.476 24.6443 114.237 24.2736 113.196ZM70.7629 140.301V159.012L71.0845 159.575C71.939 161.07 73.5133 162.776 75.3162 164.109C77.0914 165.423 79.4765 166.663 81.9921 166.663C84.5304 166.663 86.8434 165.402 88.5701 164.091C90.3434 162.745 91.8284 161.096 92.7666 159.782L93.2213 159.146V140.301H70.7629Z" fill="white"/>
<path d="M108.47 146.207C109.134 138.369 110.009 130.647 110.848 124.167C112.87 134.495 117.694 141.794 123.68 146.733C124.416 147.341 125.168 147.911 125.933 148.446V178.858L107.769 178.787C106.937 170.464 107.445 158.29 108.47 146.207Z" fill="white"/>
<path fill-rule="evenodd" clip-rule="evenodd" d="M130.815 123.702H129.657C130.745 126.142 132.469 128.361 134.612 130.219C136.502 131.859 138.652 133.159 140.856 134.049C141.65 131.451 144.067 129.561 146.926 129.561C150.036 129.561 152.623 131.796 153.168 134.748C155.744 134.101 158.014 132.981 159.84 131.377C161.832 129.626 163.428 127.181 164.289 123.846L163.679 123.694C160.329 123.519 157.667 120.749 157.667 117.356C157.667 113.851 160.509 111.01 164.014 111.01H164.384C163.703 107.579 162.458 104.878 160.699 102.862C159.126 101.059 157.021 99.6675 154.25 98.8091V101.734C154.25 105.239 151.408 108.081 147.903 108.081C144.397 108.081 141.556 105.239 141.556 101.734V98.4291C137.821 99.3298 134.99 101.187 132.933 103.617C131.213 105.648 129.966 108.162 129.215 111.01H130.815C134.32 111.01 137.162 113.851 137.162 117.356C137.162 120.861 134.32 123.702 130.815 123.702ZM147.415 111.01C144.179 111.01 141.556 113.632 141.556 116.868C141.556 120.103 144.179 122.726 147.415 122.726C150.65 122.726 153.273 120.103 153.273 116.868C153.273 113.632 150.65 111.01 147.415 111.01Z" fill="white"/>
<path fill-rule="evenodd" clip-rule="evenodd" d="M126.787 142.968C120.282 137.6 115.046 128.721 114.719 114.391C116.055 108.401 119.067 100.624 124.295 94.4031C129.36 88.3754 136.462 83.8381 146.272 83.6713H146.377L151.205 83.9126C171.152 86.1474 180.614 103.092 180.614 116.868C180.614 123.529 178.577 132.116 173.484 138.924C168.472 145.624 160.417 150.736 147.939 150.553C141.615 150.46 133.42 148.441 126.787 142.968ZM131.412 133.906C128.306 131.211 125.739 127.721 124.43 123.702H124.311L124.33 123.387C123.791 121.631 123.491 119.776 123.491 117.844C123.491 111.323 125.281 105.099 129.207 100.462C133.184 95.7658 139.145 92.9468 146.926 92.9468C154.539 92.9468 160.438 95.1373 164.378 99.6526C168.262 104.104 169.873 110.4 169.873 117.844C169.873 125.55 167.349 131.277 163.062 135.044C158.83 138.763 153.187 140.301 147.415 140.301C141.854 140.301 135.933 137.828 131.412 133.906Z" fill="white"/>
<path d="M22.9151 130.369C24.3639 140.871 25.5996 156.435 25.8327 178.468L5.33089 178.389C5.30632 174.979 5.23763 170.923 5.16484 166.625C5.07269 161.184 4.97396 155.355 4.94985 149.956C4.92549 144.501 4.97457 139.377 5.17285 135.243C5.27204 133.175 5.40722 131.386 5.58397 129.943C5.7665 128.453 5.97524 127.497 6.16144 127C8.17216 121.639 13.2099 117.591 15.631 116.171L19.6568 114.785C19.9493 115.603 20.2867 116.696 20.6491 118.115C21.3833 120.987 22.1753 125.006 22.9151 130.369Z" fill="white"/>
<path d="M153.761 71.4666V79.1525L151.646 79.0467C150.291 78.9 148.893 78.8129 147.454 78.7897C147.041 78.783 146.632 78.783 146.227 78.7894H141.556V71.4666H153.761Z" fill="white"/>
<path d="M131.791 66.5848V59.262H162.55V66.5848H131.791Z" fill="white"/>
</svg>
