<svg width="205" height="198" viewBox="0 0 205 198" fill="none" xmlns="http://www.w3.org/2000/svg">
<path d="M5.33545 192.618C7.92802 192.618 137.125 192.618 199.779 192.618M5.33545 192.618H199.779M5.33545 192.618C5.33545 188.297 7.92802 177.062 18.2983 166.692C28.6686 156.322 31.2612 154.887 34.5019 153.729C49.6252 148.328 79.8719 136.877 79.8719 134.285V111.6C75.551 107.279 66.2609 97.3407 63.6683 92.1556C60.4276 85.6742 53.9462 72.7113 53.9462 56.5077C53.9462 40.3041 63.6685 4.65625 102.557 4.65625C141.446 4.65625 151.168 40.3041 151.168 56.5077C151.168 72.7113 144.686 85.6742 141.446 92.1556C138.853 97.3407 129.563 107.279 125.242 111.6C125.242 118.081 125.242 131.692 125.242 134.285C125.242 136.877 145.766 145.087 160.89 150.489C177.093 156.97 176.445 156.322 186.816 166.692C197.186 177.062 199.779 188.297 199.779 192.618" stroke="white" stroke-width="9"/>
</svg>
