<svg width="208" height="201" viewBox="0 0 208 201" fill="none" xmlns="http://www.w3.org/2000/svg">
<path d="M206.086 199.303H1.02832C1.02832 194.746 3.76241 182.898 14.6988 171.962C25.6352 161.025 28.3693 159.512 31.7869 158.291C47.7358 152.595 79.6336 140.519 79.6336 137.785V113.862C75.0768 109.305 65.2796 98.8245 62.5455 93.3563C59.1279 86.5211 52.2926 72.8506 52.2926 55.7625C52.2926 38.6744 62.5456 1.08057 103.557 1.08057C144.569 1.08057 154.821 38.6744 154.821 55.7625C154.821 72.8506 147.986 86.5211 144.569 93.3563C141.834 98.8245 132.037 109.305 127.48 113.862V137.785C127.48 140.519 149.125 149.177 165.074 154.873C182.162 161.709 181.479 161.025 192.415 171.962C203.352 182.898 206.086 194.746 206.086 199.303Z" fill="white"/>
<path d="M1.02832 199.303C3.76242 199.303 140.012 199.303 206.086 199.303M1.02832 199.303H206.086M1.02832 199.303C1.02832 194.746 3.76241 182.898 14.6988 171.962C25.6352 161.025 28.3693 159.512 31.7869 158.291C47.7358 152.595 79.6336 140.519 79.6336 137.785V113.862C75.0768 109.305 65.2796 98.8245 62.5455 93.3563C59.1279 86.5211 52.2926 72.8506 52.2926 55.7625C52.2926 38.6744 62.5456 1.08057 103.557 1.08057C144.569 1.08057 154.821 38.6744 154.821 55.7625C154.821 72.8506 147.986 86.5211 144.569 93.3563C141.834 98.8245 132.037 109.305 127.48 113.862C127.48 120.697 127.48 135.051 127.48 137.785C127.48 140.519 149.125 149.177 165.074 154.873C182.162 161.709 181.479 161.025 192.415 171.962C203.352 182.898 206.086 194.746 206.086 199.303" stroke="white" stroke-width="2"/>
</svg>
