<svg width="192" height="175" viewBox="0 0 192 175" fill="none" xmlns="http://www.w3.org/2000/svg">
<path fill-rule="evenodd" clip-rule="evenodd" d="M0 152.5V152.494H192V152.5H109.709H0ZM8 0V120.5H184V0H8ZM184 128.5H8V144.5H184V128.5ZM49 29H48C45.2386 29 43 31.2386 43 34V86C43 88.7614 45.2386 91 48 91H49C51.7614 91 54 88.7614 54 86V34C54 31.2386 51.7614 29 49 29ZM48 17C38.6112 17 31 24.6112 31 34V54H21V66H31V86C31 95.3888 38.6112 103 48 103H49C58.3888 103 66 95.3888 66 86V76H126V86C126 95.3888 133.611 103 143 103H144C153.389 103 161 95.3888 161 86V66H171V54H161V34C161 24.6112 153.389 17 144 17H143C133.611 17 126 24.6112 126 34V44H66V34C66 24.6112 58.3888 17 49 17H48ZM126 65V55H66V65H126ZM143 29H144C146.761 29 149 31.2386 149 34V86C149 88.7614 146.761 91 144 91H143C140.239 91 138 88.7614 138 86V34C138 31.2386 140.239 29 143 29Z" fill="white"/>
<path d="M109.711 152.494H82.4204C77.9716 165.02 70.3724 172.688 67.1289 174.956H126.174C117.101 169.22 111.419 157.591 109.711 152.494Z" fill="white"/>
</svg>
