<?xml version="1.0" standalone="no"?>
<!DOCTYPE svg PUBLIC "-//W3C//DTD SVG 20010904//EN"
 "http://www.w3.org/TR/2001/REC-SVG-20010904/DTD/svg10.dtd">
<svg version="1.0" xmlns="http://www.w3.org/2000/svg"
 width="1563.000000pt" height="1563.000000pt" viewBox="0 0 1563.000000 1563.000000"
 preserveAspectRatio="xMidYMid meet">

<g transform="translate(0.000000,1563.000000) scale(0.100000,-0.100000)"
fill="#000000" stroke="none">
<path d="M7410 15303 c-1114 -50 -2250 -364 -3215 -890 -714 -389 -1311 -849
-1892 -1457 -716 -748 -1298 -1710 -1638 -2706 -208 -608 -329 -1200 -387
-1895 -17 -198 -16 -893 0 -1090 81 -943 285 -1738 658 -2564 239 -528 598
-1111 968 -1571 219 -273 593 -669 841 -890 536 -479 1109 -865 1740 -1171
812 -394 1659 -630 2580 -718 472 -46 1009 -41 1520 13 1443 154 2837 747
3966 1688 75 62 167 141 204 176 l69 63 -55 55 -54 54 -105 -92 c-690 -609
-1482 -1079 -2348 -1394 -657 -239 -1321 -378 -2042 -425 -225 -15 -917 -6
-1130 15 -1563 151 -2957 746 -4140 1765 -177 153 -579 552 -723 719 -1007
1162 -1615 2557 -1771 4062 -57 548 -46 1227 29 1775 155 1144 608 2287 1279
3230 257 360 474 615 820 960 339 337 610 567 966 817 958 674 2118 1122 3265
1262 343 42 423 47 802 53 710 11 1232 -45 1891 -203 688 -164 1420 -466 2042
-842 746 -451 1408 -1037 1966 -1738 596 -749 1046 -1632 1310 -2569 330
-1170 358 -2456 79 -3655 -217 -934 -644 -1866 -1212 -2643 -178 -244 -410
-524 -567 -685 l-71 -72 56 -56 56 -55 65 68 c566 593 1087 1389 1418 2168
317 746 497 1463 577 2305 25 263 25 1037 0 1290 -100 1019 -336 1849 -770
2716 -336 672 -746 1253 -1281 1818 -496 524 -1152 1030 -1793 1382 -901 495
-1831 787 -2858 898 -279 30 -792 44 -1115 29z"/>
<path d="M7465 14783 c-109 -3 -415 -29 -581 -49 -591 -71 -1236 -242 -1819
-483 -203 -85 -614 -289 -815 -407 -91 -53 -242 -147 -336 -210 -166 -110
-486 -343 -499 -363 -6 -11 15 -51 28 -51 4 0 47 31 95 68 1007 786 2284 1290
3562 1406 806 74 1578 16 2345 -175 503 -126 981 -307 1470 -558 1888 -970
3232 -2763 3629 -4844 185 -969 158 -2013 -75 -2952 -308 -1235 -925 -2330
-1819 -3225 -1203 -1205 -2753 -1910 -4444 -2021 -261 -17 -875 -6 -1126 20
-679 70 -1246 208 -1876 454 -1474 578 -2732 1689 -3506 3097 -492 893 -772
1862 -839 2900 -17 264 -6 856 20 1105 72 683 207 1240 454 1870 348 890 916
1740 1605 2401 l136 131 -18 27 -17 27 -92 -87 c-927 -887 -1585 -1991 -1921
-3219 -100 -365 -169 -748 -217 -1205 -17 -160 -23 -900 -10 -1097 135 -1955
1063 -3732 2596 -4967 640 -516 1405 -933 2175 -1184 459 -150 894 -247 1360
-302 319 -37 441 -42 911 -37 407 4 477 7 679 31 124 14 239 28 255 31 713
120 1171 252 1785 515 825 354 1668 952 2290 1625 461 498 810 993 1102 1562
413 804 644 1580 745 2503 26 242 26 1148 0 1390 -99 905 -333 1703 -725 2470
-447 876 -1076 1649 -1845 2268 -886 714 -1985 1222 -3077 1421 -551 101 -987
132 -1585 114z"/>
<path d="M7565 12985 c-265 -58 -454 -242 -516 -501 -39 -162 -14 -375 60
-522 41 -80 114 -174 171 -220 l49 -39 -572 -8 c-315 -4 -630 -10 -702 -14
l-130 -6 -3 -41 c-5 -65 32 -147 92 -207 97 -98 227 -147 382 -147 91 1 133 7
383 59 203 42 314 48 415 22 135 -36 240 -111 288 -209 22 -46 23 -54 21 -283
-1 -129 -11 -516 -23 -860 -56 -1720 -72 -2132 -85 -2240 -59 -468 -275 -667
-724 -669 -162 0 -458 52 -646 115 -387 128 -669 348 -800 620 -24 50 -46 102
-49 118 l-6 27 107 0 c130 0 358 40 351 61 -5 14 -940 711 -946 705 -13 -14
60 -472 108 -675 141 -587 357 -935 762 -1227 181 -130 414 -249 961 -490 606
-267 887 -459 1112 -757 l56 -76 112 92 c241 198 472 337 1072 647 778 401
1007 549 1280 824 501 505 704 1057 575 1562 -11 43 -22 79 -25 82 -2 2 -77
-54 -167 -125 -90 -71 -285 -225 -435 -342 -150 -116 -275 -216 -278 -222 -14
-22 80 -47 215 -57 91 -6 146 -15 168 -26 34 -18 62 -62 62 -98 -1 -67 -82
-169 -230 -293 -267 -221 -568 -365 -933 -446 -67 -15 -145 -22 -282 -26 -172
-5 -199 -3 -275 16 -130 32 -203 73 -295 166 -146 145 -214 329 -245 660 -5
61 -21 837 -35 1725 l-25 1615 22 17 c12 9 56 27 98 40 64 20 95 23 220 22
121 0 182 -7 365 -38 192 -33 234 -38 330 -33 131 6 202 23 312 77 131 64 212
164 226 276 l5 42 -167 6 c-91 3 -402 9 -691 12 l-525 6 80 82 c133 133 202
293 212 486 22 425 -274 732 -702 729 -55 0 -127 -7 -160 -14z m287 -275 c252
-78 358 -347 236 -598 -36 -72 -118 -154 -188 -186 -72 -32 -211 -35 -302 -5
-129 41 -239 146 -273 262 -54 183 44 413 215 502 94 49 206 58 312 25z"/>
<path d="M11785 6209 c-418 -3 -914 -7 -1103 -8 l-343 -1 -24 -25 c-42 -41
-29 -103 26 -123 14 -6 171 -8 364 -6 187 3 845 9 1462 14 616 6 1129 13 1137
16 19 7 46 54 46 79 0 9 -11 27 -25 40 l-24 25 -378 -2 c-208 -1 -720 -5
-1138 -9z"/>
<path d="M3051 6109 l-914 -8 -24 -22 c-30 -29 -30 -70 0 -105 l23 -27 1470
12 c952 8 1478 15 1495 22 49 19 59 79 21 122 -14 16 -54 17 -586 15 -314 -1
-982 -5 -1485 -9z"/>
<path d="M8806 5060 c-238 -38 -421 -206 -475 -440 -71 -299 50 -585 300 -710
100 -51 172 -65 310 -64 121 1 230 31 328 90 233 140 333 453 237 742 -61 182
-171 289 -371 359 -80 28 -229 38 -329 23z m268 -319 c146 -91 196 -272 121
-439 -45 -101 -147 -162 -269 -162 -218 0 -356 203 -288 427 45 146 178 223
346 201 32 -5 73 -17 90 -27z"/>
<path d="M2971 5047 c-17 -4 -35 -16 -41 -27 -7 -13 -11 -203 -10 -572 0 -482
2 -554 15 -568 23 -22 261 -22 275 0 5 8 10 66 10 128 0 105 2 115 23 136 22
21 33 24 116 24 122 0 161 7 254 45 95 38 162 101 209 195 28 57 32 76 36 170
5 128 -10 194 -61 275 -62 96 -166 166 -284 189 -66 13 -496 17 -542 5z m519
-286 c51 -27 71 -68 72 -145 0 -73 -18 -115 -65 -150 -24 -17 -46 -22 -131
-24 -102 -4 -103 -3 -125 23 -19 25 -21 40 -21 151 0 162 1 164 138 164 76 0
105 -4 132 -19z"/>
<path d="M4483 5051 c-61 -3 -115 -10 -120 -14 -4 -5 -9 -263 -10 -573 -2
-549 -2 -565 17 -584 19 -19 36 -20 360 -20 409 0 380 -10 380 133 0 50 -4 97
-8 104 -16 26 -69 33 -237 33 -205 0 -205 0 -205 105 0 104 2 105 191 105 156
0 160 1 184 25 23 22 25 32 25 115 0 131 2 130 -200 130 -160 0 -161 0 -187
26 -22 22 -25 32 -20 71 2 24 10 50 16 56 8 8 77 14 199 17 103 3 195 9 204
14 25 12 28 31 24 136 -3 76 -7 96 -22 107 -13 10 -65 13 -205 13 -102 0 -206
2 -230 4 -24 2 -94 1 -156 -3z"/>
<path d="M5703 5052 c-30 -2 -46 -9 -53 -23 -15 -26 -15 -1094 -1 -1131 6 -16
21 -30 35 -34 44 -11 222 0 239 15 14 11 17 35 17 150 0 170 5 181 87 181 51
0 58 -3 90 -36 18 -20 43 -55 55 -78 43 -85 99 -173 129 -202 30 -28 32 -29
157 -32 135 -4 182 5 182 35 0 10 -45 90 -100 178 -55 88 -100 165 -100 171 0
7 -3 19 -6 28 -3 9 10 31 34 58 22 24 55 72 73 108 33 64 34 68 34 190 0 119
-1 128 -31 190 -54 113 -151 191 -272 218 -62 13 -445 23 -569 14z m506 -290
c68 -31 91 -123 51 -202 -27 -53 -52 -67 -135 -73 -86 -7 -154 5 -172 29 -14
19 -19 197 -7 229 4 10 21 23 38 31 39 17 176 8 225 -14z"/>
<path d="M7460 5050 c-173 -3 -316 -7 -316 -8 -12 -18 -15 -119 -14 -591 0
-485 2 -557 15 -571 12 -11 43 -16 116 -18 55 -2 111 -1 124 2 44 11 56 52 53
193 -1 71 2 138 6 150 11 33 57 43 206 43 172 0 170 -2 170 131 0 138 7 133
-194 139 -204 6 -200 3 -192 131 3 48 8 93 12 102 9 24 47 29 212 28 149 -1
186 5 204 33 4 6 8 53 8 104 0 79 -3 95 -20 112 -11 11 -26 20 -34 20 -8 0
-20 1 -28 3 -7 1 -155 0 -328 -3z"/>
<path d="M10108 5052 c-20 -2 -42 -10 -49 -18 -13 -16 -21 -682 -11 -978 7
-206 1 -199 159 -194 148 4 143 -2 143 179 0 164 3 169 87 169 50 0 59 -3 87
-33 17 -19 47 -64 66 -101 64 -125 112 -190 150 -203 36 -12 238 -17 277 -7
50 14 35 50 -130 306 -56 87 -57 105 -6 164 23 27 56 78 73 114 29 61 31 72
31 180 0 111 -1 117 -36 190 -58 121 -139 187 -267 216 -60 13 -127 17 -307
18 -126 1 -247 0 -267 -2z m512 -291 c71 -35 89 -137 39 -217 -28 -47 -55 -55
-173 -57 -132 -1 -136 3 -136 153 0 144 8 151 155 143 46 -3 95 -12 115 -22z"/>
<path d="M11564 5037 l-24 -22 -1 -552 c0 -370 4 -559 11 -572 13 -26 59 -34
163 -30 58 3 91 9 110 22 l28 18 -1 217 c0 119 -1 223 0 230 1 30 35 5 138
-98 88 -89 115 -110 138 -110 23 0 48 20 135 110 58 61 111 110 117 110 19 0
22 -32 22 -250 0 -266 -10 -250 153 -250 100 0 110 2 131 23 l24 24 1 547 c1
364 -2 553 -9 566 -33 61 -96 39 -194 -67 -40 -43 -92 -100 -116 -128 -23 -27
-87 -96 -141 -152 -78 -83 -103 -103 -126 -103 -30 0 -31 0 -295 287 -184 201
-215 222 -264 180z"/>
<path d="M5380 3411 c-149 -32 -223 -198 -151 -339 40 -78 107 -116 202 -115
158 1 257 123 228 281 -23 121 -151 201 -279 173z m133 -139 c86 -86 4 -233
-113 -202 -55 15 -80 50 -80 114 0 60 18 92 64 112 44 20 94 10 129 -24z"/>
<path d="M9520 3411 c-149 -32 -223 -198 -151 -339 40 -78 107 -116 202 -115
158 1 257 123 228 281 -23 121 -151 201 -279 173z m133 -139 c86 -86 4 -233
-113 -202 -55 15 -80 50 -80 114 0 60 18 92 64 112 44 20 94 10 129 -24z"/>
<path d="M4755 3398 c-3 -8 -4 -108 -3 -223 l3 -210 50 0 50 0 3 62 c2 34 8
66 15 72 7 5 40 11 72 13 l60 3 0 45 0 45 -70 5 c-64 5 -70 7 -73 29 -2 12 -1
34 2 47 6 21 12 23 84 26 l77 3 0 45 0 45 -133 3 c-102 2 -134 0 -137 -10z"/>
<path d="M5865 3398 c-3 -7 -4 -108 -3 -223 l3 -210 50 0 50 0 3 57 c2 44 7
60 22 68 26 14 48 3 67 -34 8 -17 26 -46 40 -63 22 -30 29 -33 78 -33 30 0 56
4 59 8 3 5 -14 39 -36 76 -34 56 -40 71 -30 84 67 95 58 197 -21 256 -25 18
-45 21 -153 25 -98 2 -125 0 -129 -11z m216 -98 c23 -13 26 -71 5 -89 -16 -13
-87 -17 -105 -7 -12 8 -15 88 -4 99 10 11 82 8 104 -3z"/>
<path d="M6729 3398 c-6 -74 1 -422 8 -429 5 -5 67 -8 139 -7 l129 3 0 45 0
45 -80 5 -80 5 0 35 c0 35 0 35 50 38 91 4 95 7 95 57 l0 44 -72 3 -73 3 0 30
0 30 77 3 c84 3 88 6 80 65 l-4 37 -134 0 c-100 0 -134 -3 -135 -12z"/>
<path d="M7170 3394 c0 -18 166 -400 183 -421 5 -7 20 -13 32 -13 20 0 31 19
85 143 34 78 75 169 90 203 45 96 44 99 -19 99 l-54 0 -50 -122 c-27 -68 -53
-123 -57 -123 -4 0 -30 55 -57 123 l-48 122 -53 3 c-43 3 -52 0 -52 -14z"/>
<path d="M7774 3397 c-2 -7 -3 -107 -2 -222 l3 -210 140 0 140 0 0 45 0 45
-80 5 -80 5 -3 38 -3 37 64 0 c74 0 90 12 85 62 l-3 33 -67 3 c-71 3 -94 17
-83 51 5 18 16 21 83 23 l77 3 3 48 3 47 -136 0 c-101 0 -137 -3 -141 -13z"/>
<path d="M8267 3403 c-9 -8 -9 -406 -1 -427 8 -20 87 -22 101 -3 6 6 9 33 6
59 -3 39 0 49 17 58 28 15 55 -2 80 -51 33 -64 53 -79 109 -79 28 0 53 4 56
10 3 5 -13 39 -36 76 -35 54 -40 69 -31 83 40 56 54 96 48 139 -15 109 -69
142 -232 142 -61 0 -114 -3 -117 -7z m217 -106 c22 -16 24 -63 4 -83 -19 -19
-97 -21 -109 -3 -10 16 -12 60 -3 83 8 20 82 22 108 3z"/>
<path d="M8786 3402 c-2 -4 29 -62 70 -127 l74 -119 0 -87 c0 -99 8 -112 67
-107 l38 3 5 95 5 95 73 116 c39 64 72 121 72 127 0 13 -98 17 -116 4 -6 -4
-26 -35 -45 -70 -18 -34 -38 -61 -44 -59 -5 2 -16 17 -24 33 -8 16 -25 46 -38
67 -22 35 -26 37 -78 37 -29 0 -56 -4 -59 -8z"/>
<path d="M10007 3403 c-10 -9 -8 -416 2 -431 5 -9 25 -12 57 -10 l49 3 3 103
c1 56 6 102 9 102 4 0 55 -48 114 -106 72 -71 114 -105 126 -102 17 3 18 19
18 223 l0 220 -55 0 -55 0 -2 -98 c-1 -55 -4 -102 -8 -105 -3 -3 -54 42 -113
101 -99 99 -127 118 -145 100z"/>
<path d="M10615 3398 c-3 -8 -4 -108 -3 -223 l3 -210 132 -3 c118 -2 133 -1
141 15 5 10 8 29 7 43 -2 14 -4 28 -4 33 -1 4 -37 7 -81 7 -77 0 -80 1 -86 25
-11 46 0 55 69 55 67 0 87 10 87 46 0 48 -9 54 -75 54 -66 0 -90 13 -83 47 3
15 16 19 83 23 l80 5 0 45 0 45 -133 3 c-102 2 -134 0 -137 -10z"/>
</g>
</svg>
